<svg width="780" height="609" viewBox="0 0 780 609" fill="none" xmlns="http://www.w3.org/2000/svg">
<path d="M0 165H146.5H367.5C419.326 166.243 451.559 188.055 518.5 276H242L528 605.5C436.092 613.777 394.528 606.573 345 564.5L0 165Z" fill="black"/>
<path d="M107 0H523.5C600.257 5.11924 639.939 22.9617 692 104C739.726 202.676 735.721 257.263 681.5 353.5C658.919 381.024 643.833 394.368 611.5 413.5L780 605C689.129 610.542 644.005 607.993 599.5 568.5L505.5 459.5L394 330H516C583.383 330.376 614.899 306.194 627 252.5C638.698 139.832 581.292 111.385 516 110H246C189.131 100.314 159.377 67.4649 107 0Z" fill="black"/>
</svg>
