<svg width="2502" height="2458" viewBox="0 0 2502 2458" fill="none" xmlns="http://www.w3.org/2000/svg">
<rect width="2457.33" height="2457.33" fill="#B9FF66"/>
<g clip-path="url(#clip0_117_327)">
<path d="M562.637 1072.43L731.995 1022.53L682.579 1192.37L731.995 1361.73L562.637 1312.31L392.799 1361.73L442.695 1192.37L392.799 1022.53L562.637 1072.43Z" fill="black"/>
</g>
<path d="M846.008 1319.39L919.818 1038.6H1012.08L1085.89 1319.39H1031.33L1016.09 1257.62H915.806L900.563 1319.39H846.008ZM928.242 1208.68H1003.66L969.559 1071.89H962.339L928.242 1208.68ZM1135.58 1319.39L1107.5 1120.43H1157.65L1175.3 1285.3H1182.52L1208.19 1120.43H1289.22L1314.89 1285.3H1322.11L1339.76 1120.43H1389.91L1361.83 1319.39H1277.99L1252.32 1154.53H1245.09L1219.42 1319.39H1135.58ZM1495.88 1325.01C1481.71 1325.01 1469 1322.6 1457.77 1317.79C1446.54 1312.71 1437.58 1305.49 1430.89 1296.13C1424.48 1286.5 1421.27 1274.87 1421.27 1261.23C1421.27 1247.59 1424.48 1236.23 1430.89 1227.13C1437.58 1217.77 1446.67 1210.82 1458.17 1206.27C1469.94 1201.46 1483.31 1199.05 1498.29 1199.05H1552.84V1187.82C1552.84 1178.46 1549.9 1170.84 1544.02 1164.96C1538.13 1158.81 1528.77 1155.73 1515.94 1155.73C1503.37 1155.73 1494.01 1158.67 1487.86 1164.55C1481.71 1170.17 1477.69 1177.53 1475.82 1186.62L1429.29 1170.97C1432.5 1160.81 1437.58 1151.58 1444.53 1143.29C1451.75 1134.74 1461.25 1127.92 1473.01 1122.84C1485.05 1117.49 1499.62 1114.81 1516.74 1114.81C1542.95 1114.81 1563.67 1121.37 1578.92 1134.47C1594.16 1147.57 1601.78 1166.56 1601.78 1191.43V1265.64C1601.78 1273.66 1605.52 1277.68 1613.01 1277.68H1629.06V1319.39H1595.36C1585.47 1319.39 1577.31 1316.99 1570.89 1312.17C1564.47 1307.36 1561.26 1300.94 1561.26 1292.92V1292.52H1553.64C1552.57 1295.73 1550.17 1300.01 1546.42 1305.35C1542.68 1310.44 1536.8 1314.98 1528.77 1318.99C1520.75 1323.01 1509.79 1325.01 1495.88 1325.01ZM1504.7 1284.09C1518.88 1284.09 1530.38 1280.22 1539.2 1272.46C1548.29 1264.44 1552.84 1253.88 1552.84 1240.77V1236.76H1501.9C1492.54 1236.76 1485.18 1238.77 1479.83 1242.78C1474.49 1246.79 1471.81 1252.4 1471.81 1259.62C1471.81 1266.85 1474.62 1272.73 1480.23 1277.28C1485.85 1281.82 1494.01 1284.09 1504.7 1284.09ZM1666.01 1319.39V1120.43H1715.75V1142.89H1722.97C1725.92 1134.87 1730.73 1128.99 1737.42 1125.24C1744.37 1121.5 1752.39 1119.63 1761.48 1119.63H1785.55V1164.55H1760.68C1747.84 1164.55 1737.28 1168.03 1728.99 1174.98C1720.7 1181.67 1716.56 1192.1 1716.56 1206.27V1319.39H1666.01ZM1908.66 1325.01C1888.87 1325.01 1871.36 1320.87 1856.12 1312.58C1841.14 1304.02 1829.37 1292.12 1820.81 1276.87C1812.52 1261.36 1808.38 1243.18 1808.38 1222.32V1217.51C1808.38 1196.65 1812.52 1178.59 1820.81 1163.35C1829.1 1147.84 1840.74 1135.94 1855.71 1127.65C1870.69 1119.09 1888.07 1114.81 1907.86 1114.81C1927.38 1114.81 1944.37 1119.23 1958.81 1128.05C1973.25 1136.61 1984.48 1148.64 1992.5 1164.15C2000.53 1179.4 2004.54 1197.18 2004.54 1217.51V1234.75H1859.73C1860.26 1248.39 1865.34 1259.49 1874.97 1268.05C1884.6 1276.61 1896.36 1280.89 1910.27 1280.89C1924.44 1280.89 1934.87 1277.81 1941.56 1271.66C1948.24 1265.51 1953.32 1258.69 1956.8 1251.2L1998.12 1272.86C1994.37 1279.82 1988.89 1287.44 1981.67 1295.73C1974.72 1303.75 1965.36 1310.7 1953.59 1316.59C1941.83 1322.2 1926.85 1325.01 1908.66 1325.01ZM1860.13 1197.05H1953.19C1952.12 1185.55 1947.44 1176.32 1939.15 1169.37C1931.13 1162.42 1920.56 1158.94 1907.46 1158.94C1893.82 1158.94 1882.99 1162.42 1874.97 1169.37C1866.95 1176.32 1862 1185.55 1860.13 1197.05Z" fill="black"/>
<defs>
<clipPath id="clip0_117_327">
<rect width="2112.39" height="538.833" fill="white" transform="translate(389.454 922.952)"/>
</clipPath>
</defs>
</svg>
