<?xml version="1.0" encoding="UTF-8"?>
<svg width="100%" height="auto" viewBox="0 0 2090 959" fill="none" xmlns="http://www.w3.org/2000/svg">
<path d="M0 0 C54.15841493 -0.0917326 108.31682194 -0.16212838 162.4752994 -0.20426132 C168.88205194 -0.20926361 175.28880433 -0.21444096 181.69555664 -0.21972656 C182.97092338 -0.2207758 184.24629011 -0.22182505 185.56030432 -0.22290608 C206.15925643 -0.24026937 226.75816349 -0.27178439 247.35708895 -0.30861118 C268.52348845 -0.34613441 289.68986449 -0.36825981 310.85629588 -0.37635398 C323.89704167 -0.38181824 336.93766006 -0.39902055 349.97836659 -0.43166587 C358.9440251 -0.45295457 367.9096186 -0.45916789 376.87530049 -0.45400551 C382.03328397 -0.45146586 387.19104625 -0.45511134 392.34898949 -0.4768219 C452.15464461 -0.71586486 502.8820447 8.96811546 547 52 C588.46423941 93.87477643 616.5490115 156.02308921 619 215 C619.061875 216.45792969 619.061875 216.45792969 619.125 217.9453125 C619.87471518 254.58764187 607.90775247 289.46265824 592 322 C591.52739746 322.97936523 591.05479492 323.95873047 590.56787109 324.96777344 C583.31201825 339.98449242 576.24012289 354.16148031 564.60546875 366.28125 C562.40948526 368.57271104 560.31266383 370.9021962 558.25 373.3125 C544.1819643 389.43765413 525.79538564 402.86523323 507 413 C508.50006391 416.44779086 510.50409262 418.82360533 513.0625 421.5625 C516.25385812 425.03798539 519.30455526 428.56411074 522.25 432.25 C526.3495192 437.32423006 530.73370862 442.0623033 535.20214844 446.80761719 C539.22314839 451.10090903 542.94982454 455.56228068 546.625 460.15625 C549.46464456 463.55635072 552.46388099 466.77586445 555.5 470 C560.10577446 474.89099444 564.4261367 479.90767088 568.625 485.15625 C571.46464456 488.55635072 574.46388099 491.77586445 577.5 495 C582.10577446 499.89099444 586.4261367 504.90767088 590.625 510.15625 C593.46464456 513.55635072 596.46388099 516.77586445 599.5 520 C604.10577446 524.89099444 608.4261367 529.90767088 612.625 535.15625 C615.46464456 538.55635072 618.46388099 541.77586445 621.5 545 C626.10577446 549.89099444 630.4261367 554.90767088 634.625 560.15625 C637.46464456 563.55635072 640.46388099 566.77586445 643.5 570 C648.09574796 574.88034704 652.41144733 579.88151605 656.59375 585.125 C660.13406845 589.35499088 663.9260038 593.34258049 667.74804688 597.31835938 C671.89467093 601.68401279 671.89467093 601.68401279 673 605 C670.828453 607.171547 665.88932046 606.40642336 662.8671875 606.53515625 C661.46370811 606.5998259 661.46370811 606.5998259 660.03187561 606.665802 C656.97981428 606.80400106 653.92748598 606.93404224 650.875 607.0625 C649.32620651 607.12928452 649.32620651 607.12928452 647.74612427 607.19741821 C633.1568445 607.82210145 618.60342013 608.38358518 604 608 C603.20158691 607.98598145 602.40317383 607.97196289 601.58056641 607.95751953 C560.14440007 607.15188551 518.64994607 596.5311524 489.06640625 566.0234375 C483.84565632 560.48826012 479.01557643 554.64056466 474.24609375 548.71484375 C471.9116941 545.89326505 469.48009402 543.19409288 467 540.5 C462.90648909 536.05272888 459.07557501 531.45282537 455.28125 526.75 C452.93281032 523.91900422 450.49090098 521.20616402 448 518.5 C443.88621091 514.0301488 440.02912703 509.40955107 436.21484375 504.68359375 C434.04367173 502.05291443 431.79758643 499.52057576 429.5 497 C426.40444804 493.60401318 423.44848793 490.13828469 420.5625 486.5625 C416.70174863 481.788597 412.62562925 477.26611572 408.46875 472.75 C405.27118704 469.18815771 402.28611657 465.47434167 399.28125 461.75 C396.93281032 458.91900422 394.49090098 456.20616402 392 453.5 C387.88621091 449.0301488 384.02912703 444.40955107 380.21484375 439.68359375 C378.04367173 437.05291443 375.79758643 434.52057576 373.5 432 C370.40444804 428.60401318 367.44848793 425.13828469 364.5625 421.5625 C360.70174863 416.788597 356.62562925 412.26611572 352.46875 407.75 C349.27118704 404.18815771 346.28611657 400.47434167 343.28125 396.75 C340.93281032 393.91900422 338.49090098 391.20616402 336 388.5 C331.88621091 384.0301488 328.02912703 379.40955107 324.21484375 374.68359375 C322.04367173 372.05291443 319.79758643 369.52057576 317.5 367 C314.40444804 363.60401318 311.44848793 360.13828469 308.5625 356.5625 C305.45040628 352.71175926 302.23090173 349.01521413 298.875 345.375 C287 332.4609375 287 332.4609375 287 330 C287.96267996 329.99503478 287.96267996 329.99503478 288.94480801 329.98996925 C304.68435786 329.90814341 320.42380844 329.81586677 336.16322994 329.71247292 C343.77522284 329.66271154 351.38720687 329.61627035 358.99926758 329.578125 C365.64707826 329.54480272 372.29481179 329.50476287 378.94253641 329.45720994 C382.45051112 329.43233643 385.95843731 329.41044902 389.46647453 329.39665604 C402.90880502 329.34163057 416.30168724 329.15372457 429.70922852 328.11865234 C430.68909446 328.04438334 431.6689604 327.97011433 432.67851925 327.89359474 C446.83130774 326.6674653 461.27442845 323.44614105 474 317 C474.97839844 316.51015625 475.95679688 316.0203125 476.96484375 315.515625 C499.28290794 303.45180652 510.13364363 283.17018423 517.375 259.6875 C526.12701404 229.9687045 521.50993169 187.08550026 507.0625 159.8125 C503.8975067 154.10690497 500.21821511 148.96694829 496 144 C494.9171875 142.515 494.9171875 142.515 493.8125 141 C475.43676634 119.47244147 444.10610022 113.53949159 417.5472641 111.41507912 C406.13237553 110.61379715 394.69928461 110.7335617 383.26269531 110.76049805 C380.56109607 110.75938218 377.85950971 110.75744457 375.15791321 110.75439453 C369.38848991 110.7492246 363.61910043 110.75061646 357.84967804 110.75617027 C348.71044745 110.76447396 339.57128732 110.75306734 330.43206787 110.7389679 C327.2895395 110.73436947 324.14701094 110.72991871 321.00448227 110.72552967 C320.21965122 110.72443153 319.43482016 110.72333339 318.62620635 110.72220197 C309.73794893 110.71008321 300.84968928 110.70249133 291.96142578 110.6965332 C290.74581099 110.69571111 290.74581099 110.69571111 289.50563833 110.69487242 C276.35731492 110.68640302 263.20901195 110.68975959 250.06068841 110.69568755 C236.49854519 110.70132214 222.93650423 110.68769511 209.37439227 110.65813476 C201.04211017 110.64069972 192.71012568 110.63883471 184.37784544 110.65777991 C178.66471871 110.66946387 172.95179148 110.66281161 167.23869047 110.6423107 C163.95503791 110.63109606 160.6720002 110.63037327 157.38835335 110.64648628 C116.40921901 110.83315316 84.0632753 94.31119174 55 66 C54.41444336 65.43490723 53.82888672 64.86981445 53.22558594 64.28759766 C46.38767832 57.67079822 39.91055176 50.97510958 34 43.5 C32.11675292 41.14594114 30.15559101 38.91459982 28.125 36.6875 C24.362987 32.5025388 20.88979899 28.11529426 17.44262695 23.67163086 C14.80771112 20.28101697 12.13577064 16.92842666 9.40625 13.61328125 C8.8083667 12.88633057 8.2104834 12.15937988 7.59448242 11.41040039 C6.42151684 9.98834635 5.24468937 8.56946751 4.0637207 7.15405273 C3.53351318 6.51024658 3.00330566 5.86644043 2.45703125 5.203125 C1.98241455 4.63239258 1.50779785 4.06166016 1.01879883 3.47363281 C0 2 0 2 0 0 Z " fill="#000000" transform="translate(107,133)"/>
<path d="M0 0 C48.32408667 -0.09166729 96.6481641 -0.1620954 144.97232066 -0.20426132 C150.68467225 -0.20926381 156.39702367 -0.21444113 162.109375 -0.21972656 C163.24654363 -0.2207758 164.38371227 -0.22182505 165.55534056 -0.22290608 C183.93912372 -0.24028479 202.32285657 -0.27180846 220.70660993 -0.30861118 C239.58695056 -0.34609123 258.46726493 -0.36825076 277.34764123 -0.37635398 C288.98653254 -0.38182712 300.62528158 -0.39907845 312.26412907 -0.43166587 C320.25837922 -0.45290106 328.25255643 -0.45917978 336.2468327 -0.45400551 C340.8508136 -0.45145767 345.45454689 -0.45520768 350.05848312 -0.4768219 C372.61460412 -0.57742193 394.0198767 -0.56800527 415 9 C416.68802734 9.75410156 416.68802734 9.75410156 418.41015625 10.5234375 C431.54575488 16.72029799 442.41298062 25.12251631 453 35 C454.26699298 36.08782226 455.53770696 37.17132897 456.8125 38.25 C465.50409814 45.8286496 473.54606875 54.21284528 481 63 C481.97240976 64.11073263 482.94654131 65.21995898 483.921875 66.328125 C490.75026299 74.10473009 497.29824082 82.03569764 503.62207031 90.2265625 C505.07669596 92.09871004 506.54780111 93.95687545 508.0234375 95.8125 C508.77052979 96.75403931 508.77052979 96.75403931 509.53271484 97.71459961 C510.4816268 98.90966027 511.43235272 100.1032838 512.38525391 101.29516602 C514.88165187 104.45099869 516.91310931 107.52184886 519 111 C382.875 111.495 382.875 111.495 244 112 C247.3 115.63 250.6 119.26 254 123 C256.22269837 125.72358815 258.44536533 128.4472519 260.65234375 131.18359375 C263.1787312 134.21441796 265.81308032 137.1123281 268.5 140 C272.78955113 144.61004336 276.80410672 149.37782956 280.75390625 154.28515625 C283.0883059 157.10673495 285.51990598 159.80590712 288 162.5 C291.27418423 166.05670244 294.40642433 169.67161811 297.4375 173.4375 C301.09571015 177.97316443 304.94742965 182.2570117 308.91381836 186.51928711 C312.69490558 190.60661006 316.19689966 194.88043244 319.6875 199.21875 C322.1997101 202.24019188 324.82400827 205.12441773 327.5 208 C331.76918152 212.58760113 335.75758517 217.33442728 339.6875 222.21875 C342.19971133 225.24019336 344.82402457 228.12440078 347.5 231 C351.7895776 235.61001639 355.80410897 240.37783236 359.75390625 245.28515625 C362.0883059 248.10673495 364.51990598 250.80590712 367 253.5 C370.27418423 257.05670244 373.40642433 260.67161811 376.4375 264.4375 C380.09571015 268.97316443 383.94742965 273.2570117 387.91381836 277.51928711 C391.69490558 281.60661006 395.19689966 285.88043244 398.6875 290.21875 C401.19971133 293.24019336 403.82402457 296.12440078 406.5 299 C410.7895776 303.61001639 414.80410897 308.37783236 418.75390625 313.28515625 C421.0883059 316.10673495 423.51990598 318.80590712 426 321.5 C429.27418423 325.05670244 432.40642433 328.67161811 435.4375 332.4375 C439.09571015 336.97316443 442.94742965 341.2570117 446.91381836 345.51928711 C450.69490558 349.60661006 454.19689966 353.88043244 457.6875 358.21875 C460.1997101 361.24019188 462.82400827 364.12441773 465.5 367 C469.76918152 371.58760113 473.75758517 376.33442728 477.6875 381.21875 C480.19971133 384.24019336 482.82402457 387.12440078 485.5 390 C489.7895776 394.61001639 493.80410897 399.37783236 497.75390625 404.28515625 C500.0883059 407.10673495 502.51990598 409.80590712 505 412.5 C509.10270302 416.9578056 512.95302974 421.56215839 516.75 426.28125 C519.81343204 429.98289705 523.06487058 433.4966566 526.34765625 437.00390625 C528 439 528 439 528 441 C525.20892989 441.31871421 522.41730279 441.6299104 519.625 441.9375 C518.86960937 442.02451172 518.11421875 442.11152344 517.3359375 442.20117188 C502.46695249 443.81997266 487.50960701 444.23870052 472.5625 444.25 C471.33566498 444.25101212 471.33566498 444.25101212 470.08404541 444.25204468 C426.60792059 444.19564516 388.92438812 434.41526813 354 408 C352.4221875 406.824375 352.4221875 406.824375 350.8125 405.625 C345.14780873 401.21912901 340.6595538 396.46891199 336.24609375 390.8203125 C333.94149395 387.92653676 331.5108932 385.21594303 329 382.5 C324.90648909 378.05272888 321.07557501 373.45282537 317.28125 368.75 C314.93281032 365.91900422 312.49090098 363.20616402 310 360.5 C305.90648909 356.05272888 302.07557501 351.45282537 298.28125 346.75 C295.93281032 343.91900422 293.49090098 341.20616402 291 338.5 C286.90648909 334.05272888 283.07557501 329.45282537 279.28125 324.75 C276.93281032 321.91900422 274.49090098 319.20616402 272 316.5 C267.90648909 312.05272888 264.07557501 307.45282537 260.28125 302.75 C257.93281032 299.91900422 255.49090098 297.20616402 253 294.5 C248.90648909 290.05272888 245.07557501 285.45282537 241.28125 280.75 C238.93281032 277.91900422 236.49090098 275.20616402 234 272.5 C229.90648909 268.05272888 226.07557501 263.45282537 222.28125 258.75 C219.93281032 255.91900422 217.49090098 253.20616402 215 250.5 C210.90648909 246.05272888 207.07557501 241.45282537 203.28125 236.75 C200.93281032 233.91900422 198.49090098 231.20616402 196 228.5 C191.90648909 224.05272888 188.07557501 219.45282537 184.28125 214.75 C181.93281032 211.91900422 179.49090098 209.20616402 177 206.5 C172.90648909 202.05272888 169.07557501 197.45282537 165.28125 192.75 C162.93281032 189.91900422 160.49090098 187.20616402 158 184.5 C153.90648909 180.05272888 150.07557501 175.45282537 146.28125 170.75 C143.93281032 167.91900422 141.49090098 165.20616402 139 162.5 C134.90648909 158.05272888 131.07557501 153.45282537 127.28125 148.75 C124.93281032 145.91900422 122.49090098 143.20616402 120 140.5 C115.90648909 136.05272888 112.07557501 131.45282537 108.28125 126.75 C105.93281032 123.91900422 103.49090098 121.20616402 101 118.5 C96.90648909 114.05272888 93.07557501 109.45282537 89.28125 104.75 C86.93281032 101.91900422 84.49090098 99.20616402 82 96.5 C77.90648909 92.05272888 74.07557501 87.45282537 70.28125 82.75 C67.93281032 79.91900422 65.49090098 77.20616402 63 74.5 C58.90648909 70.05272888 55.07557501 65.45282537 51.28125 60.75 C48.93281032 57.91900422 46.49090098 55.20616402 44 52.5 C39.90648909 48.05272888 36.07557501 43.45282537 32.28125 38.75 C29.93281032 35.91900422 27.49090098 33.20616402 25 30.5 C20.91633388 26.06342447 17.09146606 21.47796496 13.3125 16.78125 C10.01485807 12.81516714 6.50442123 9.06642254 2.96875 5.3125 C1 3 1 3 0 0 Z " fill="#000000" transform="translate(0,298)"/>
<path d="M0 0 C0.65689424 -0.00947007 1.31378848 -0.01894015 1.99058861 -0.02869719 C4.20213678 -0.05785653 6.41353974 -0.07252474 8.62522888 -0.08708191 C10.20696799 -0.10451821 11.78869926 -0.12267816 13.37042236 -0.14151001 C18.57563384 -0.19917183 23.78089366 -0.23470391 28.98631287 -0.26750183 C29.87200793 -0.27344793 30.75770299 -0.27939403 31.6702373 -0.28552032 C40.0249071 -0.34146247 48.37958312 -0.39013906 56.73439121 -0.41966724 C67.41811831 -0.4577858 78.10012053 -0.53284686 88.783176 -0.65950567 C96.29581613 -0.74553936 103.80799371 -0.78924536 111.3211121 -0.80178469 C115.80746044 -0.81038457 120.29191449 -0.83736685 124.77772713 -0.90963173 C129.00317091 -0.976766 133.22561874 -0.99124644 137.4514904 -0.96624184 C138.99749772 -0.96607547 140.54364376 -0.9845684 142.0891571 -1.02364731 C153.73516312 -1.30210982 153.73516312 -1.30210982 158.53910637 2.71198463 C160.82814148 5.48054159 162.76961319 8.2703749 164.66990662 11.31452942 C165.6803921 12.62973863 166.70368785 13.93546697 167.75193787 15.22077942 C179.04651759 29.96266832 188.87794303 45.44537606 196.66990662 62.31452942 C197.20100037 63.43730286 197.73209412 64.56007629 198.27928162 65.71687317 C225.8938472 126.71090075 223.85862566 210.09865018 201.66990662 272.31452942 C199.31959503 278.46811717 196.57744492 284.40725306 193.66990662 290.31452942 C193.29495056 291.08748352 192.91999451 291.86043762 192.53367615 292.65681458 C186.64361917 304.69451121 179.76325423 315.64069416 171.66990662 326.31452942 C170.9209613 327.30839661 170.17201599 328.30226379 169.40037537 329.32624817 C168.04315195 331.05110539 166.63613463 332.73844777 165.17280579 334.37425232 C163.34076916 336.52643463 161.88184074 338.49369184 160.35792542 340.83293152 C156.35366691 346.37495984 152.13463854 350.46172752 145.34668732 352.13249969 C135.92615001 353.38351133 126.43817139 353.25409886 116.95234823 353.12922335 C112.76723689 353.08592996 108.58245462 353.11340651 104.39723206 353.12980652 C97.37449244 353.1460635 90.35384477 353.10508716 83.33152771 353.02986145 C75.24017924 352.94393064 67.15292414 352.95111311 59.06140888 353.00759661 C51.23875483 353.05985866 43.41760622 353.04393877 35.59495926 352.99819565 C32.28301882 352.98010787 28.97241742 352.98573405 25.66053391 353.01120377 C21.75322438 353.03830794 17.85070376 353.00528503 13.94411087 352.92792892 C12.52053776 352.90904742 11.09652486 352.90997653 9.67301941 352.93341064 C2.23857154 353.04266807 -2.97060267 352.30509078 -8.41916358 347.17070329 C-10.85897193 344.6468215 -13.09881399 342.02735647 -15.33009338 339.31452942 C-16.55774508 337.89120521 -16.55774508 337.89120521 -17.81019783 336.43912697 C-20.07197008 333.79209884 -22.207434 331.07435071 -24.33009338 328.31452942 C-24.76176819 327.75926575 -25.19344299 327.20400208 -25.63819885 326.63191223 C-32.82777972 317.33675656 -38.92731924 307.74589094 -44.33009338 297.31452942 C-44.8826178 296.26434631 -44.8826178 296.26434631 -45.44630432 295.19294739 C-76.91622662 234.7232051 -79.52975181 154.9341395 -59.73390198 90.36824036 C-53.45938749 70.94546333 -25.72246152 0.27099521 0 0 Z M40.72068787 80.43171692 C39.81678513 82.37997262 39.04506337 84.31080722 38.3503418 86.34280396 C37.65502815 88.35764336 36.83095352 90.26097524 35.94236755 92.19758606 C24.83219539 116.76788501 22.44061115 144.75346174 22.41990662 171.37702942 C22.41923187 172.16354889 22.41855713 172.95006836 22.41786194 173.76042175 C22.45859813 203.90253793 24.51731651 256.16193931 47.66990662 279.31452942 C49.93418035 279.60684481 49.93418035 279.60684481 52.57859802 279.5415802 C53.59950531 279.54142914 54.6204126 279.54127808 55.67225647 279.54112244 C56.77749664 279.53079987 57.88273682 279.52047729 59.02146912 279.50984192 C60.15063751 279.50701202 61.27980591 279.50418213 62.44319153 279.50126648 C66.06053632 279.49004404 69.67763627 279.46493564 73.29490662 279.43952942 C75.74281972 279.42950229 78.19073668 279.42037598 80.63865662 279.41218567 C86.64915726 279.39009798 92.65951445 279.35660016 98.66990662 279.31452942 C104.44419529 268.06732334 104.44419529 268.06732334 109.23240662 256.37702942 C109.65936829 255.1916156 109.65936829 255.1916156 110.09495544 253.98225403 C118.73135036 229.32430386 123.06102967 203.41681953 123.66990662 177.31452942 C123.70986755 176.22913879 123.74982849 175.14374817 123.79100037 174.02546692 C124.5147913 139.02804635 118.36284471 102.85393656 98.66990662 73.31452942 C96.44165682 72.77416727 96.44165682 72.77416727 93.8122406 72.73591614 C92.80036179 72.68772736 91.78848297 72.63953857 90.74594116 72.58988953 C86.09622667 72.45629847 81.44780331 72.33325347 76.7966156 72.26423645 C74.34880271 72.21466787 71.90141782 72.13292688 69.45579529 72.0181427 C52.56915176 70.48898241 52.56915176 70.48898241 40.72068787 80.43171692 Z " fill="#000000" transform="translate(1380.330093383789,388.6854705810547)"/>
<path d="M0 0 C2.48091368 -0.00301093 4.96182535 -0.0098859 7.44271851 -0.02041626 C12.61936048 -0.02904015 17.79349359 0.00429402 22.96972656 0.06884766 C29.57559717 0.14849904 36.17677972 0.1297534 42.78280067 0.08037758 C47.89810041 0.05189695 53.01232068 0.07227173 58.1275444 0.1074028 C60.56176546 0.11902722 62.99609876 0.11660956 65.43028641 0.09935379 C88.30760596 -0.00886732 88.30760596 -0.00886732 97.96850586 9.0753479 C99.10944702 10.28715225 99.10944702 10.28715225 100.2734375 11.5234375 C101.48126788 12.5902187 102.69586727 13.64947246 103.921875 14.6953125 C104.82164062 15.54609375 105.72140625 16.396875 106.6484375 17.2734375 C109.7316775 20.16785618 112.81738581 23.02475582 116.0859375 25.7109375 C119.91097552 28.96726483 123.08729773 32.64924031 126.2734375 36.5234375 C126.68110352 37.01344238 127.08876953 37.50344727 127.50878906 38.00830078 C159.54533739 76.71229461 168.47617564 124.73534752 165.5234375 173.8984375 C165.430625 175.77208984 165.430625 175.77208984 165.3359375 177.68359375 C164.56508224 190.59541943 162.35136116 202.53641463 160.2734375 215.5234375 C103.8434375 215.5234375 47.4134375 215.5234375 -10.7265625 215.5234375 C-1.44045598 251.2945205 -1.44045598 251.2945205 22.2734375 279.5234375 C24.8474236 279.97887481 24.8474236 279.97887481 27.6897583 279.92216492 C28.78909698 279.93470306 29.88843567 279.94724121 31.02108765 279.9601593 C32.82291 279.95800667 32.82291 279.95800667 34.66113281 279.95581055 C35.92968109 279.9660022 37.19822937 279.97619385 38.50521851 279.98669434 C41.98010021 280.01427591 45.45481827 280.02355034 48.92979527 280.02954841 C52.56269887 280.03892913 56.19548009 280.06513224 59.82830811 280.08955383 C66.70593148 280.13323092 73.58353113 280.1617704 80.46125102 280.18487722 C89.75626828 280.21697972 99.05114411 280.27245416 108.34605408 280.32662296 C122.9884732 280.41133947 137.6308368 280.46481858 152.2734375 280.5234375 C152.2734375 304.2834375 152.2734375 328.0434375 152.2734375 352.5234375 C129.5676518 352.74956995 106.86278414 352.93361073 84.15615654 353.04155922 C73.61199372 353.09302397 63.06858255 353.16313054 52.52490234 353.27783203 C43.33008838 353.37781154 34.135819 353.44209177 24.94047654 353.46432245 C20.07567835 353.47730877 15.21243744 353.50761137 10.34814072 353.58073807 C5.75938661 353.6491566 1.17281486 353.66944771 -3.41640091 353.65451431 C-5.0909262 353.65724174 -6.76553252 353.67681698 -8.43961334 353.71549225 C-21.17024626 353.99491037 -28.15928678 350.84880709 -37.7265625 342.5234375 C-39.1813614 341.34260297 -40.63682389 340.16258395 -42.09375 338.984375 C-43.26961384 337.96327229 -44.43913414 336.93480946 -45.6015625 335.8984375 C-46.23030273 335.34341553 -46.85904297 334.78839355 -47.50683594 334.21655273 C-49.25625804 332.6623422 -50.99414713 331.09655647 -52.7265625 329.5234375 C-53.49742187 328.82605469 -54.26828125 328.12867188 -55.0625 327.41015625 C-61.34363238 321.42385254 -66.51647531 314.43473587 -71.7265625 307.5234375 C-72.36722656 306.6778125 -73.00789062 305.8321875 -73.66796875 304.9609375 C-90.62273201 281.67272439 -99.86105963 253.63578701 -105.5390625 225.6484375 C-105.73395264 224.68784424 -105.92884277 223.72725098 -106.12963867 222.73754883 C-109.11746857 207.12946257 -110.10605801 191.8218565 -110.0390625 175.9609375 C-110.03690735 175.03934845 -110.0347522 174.1177594 -110.03253174 173.16824341 C-109.86801287 129.22506231 -99.51041923 84.27006688 -72.7265625 48.5234375 C-72.30052734 47.94625977 -71.87449219 47.36908203 -71.43554688 46.77441406 C-63.19135561 35.6783433 -53.98413553 24.06961705 -43.06088257 15.49234009 C-41.20629283 13.92807022 -39.61157515 12.37152661 -37.94692993 10.62240601 C-26.63142098 -0.56750553 -15.23371188 -0.21506209 0 0 Z M0.2734375 83.5234375 C-0.09012344 84.14158829 -0.45368439 84.75973907 -0.82826233 85.3966217 C-8.25440258 99.05853899 -12.11722835 114.3053628 -14.7265625 129.5234375 C-14.92572266 130.64105469 -14.92572266 130.64105469 -15.12890625 131.78125 C-16.08849567 138.06458893 -15.7265625 144.05970583 -15.7265625 150.5234375 C16.2834375 150.5234375 48.2934375 150.5234375 81.2734375 150.5234375 C81.60069242 135.76048442 81.60069242 135.76048442 79.7109375 121.5234375 C79.53675293 120.71076416 79.36256836 119.89809082 79.18310547 119.06079102 C76.25311896 106.21021198 71.74828356 92.47947664 64.2734375 81.5234375 C63.92043579 80.95167786 63.56743408 80.37991821 63.20373535 79.79083252 C61.07463806 76.78553056 59.43791791 74.84419855 55.81190491 73.84539795 C52.78122383 73.5635728 49.82114795 73.50082168 46.77734375 73.5234375 C45.67043686 73.51199707 44.56352997 73.50055664 43.42308044 73.48876953 C41.08734625 73.47527097 38.75144808 73.4797329 36.41577148 73.50097656 C32.84902115 73.52335541 29.29060343 73.46053197 25.72460938 73.390625 C23.45052079 73.38806139 21.17641993 73.39049945 18.90234375 73.3984375 C17.84173233 73.37394531 16.78112091 73.34945312 15.68836975 73.32421875 C7.39838934 73.50567478 4.34971083 76.48920799 0.2734375 83.5234375 Z " fill="#000000" transform="translate(885.7265625,387.4765625)"/>
<path d="M0 0 C30.36 0 60.72 0 92 0 C92.03738281 14.3034375 92.07476563 28.606875 92.11328125 43.34375 C92.14358008 52.44011362 92.17462101 61.53646483 92.20898438 70.6328125 C92.26331343 85.05044389 92.31473271 99.46804091 92.34643555 113.88574219 C92.36954635 124.38962261 92.40308795 134.89341153 92.44870156 145.39721918 C92.47245892 150.9491269 92.49130139 156.50094499 92.49761391 162.05290222 C92.29088116 200.47411809 92.29088116 200.47411809 98.6875 238.25 C98.93806152 239.22251709 99.18862305 240.19503418 99.44677734 241.19702148 C102.46580131 252.42658523 106.3410906 263.86228457 112.2421875 273.93359375 C114 277 114 277 114 279 C134.295 278.505 134.295 278.505 155 278 C161.57542568 265.20882603 161.57542568 265.20882603 166.6875 252 C166.96875732 251.13246094 167.25001465 250.26492188 167.53979492 249.37109375 C169.63927123 242.65659005 171.3292406 235.8752514 172.8125 229 C173.10483521 227.6696875 173.10483521 227.6696875 173.40307617 226.3125 C176.76343031 209.63068907 177.29966831 192.58546861 177.31884766 175.6237793 C177.3281797 173.68966773 177.33835302 171.75556007 177.34928894 169.82145691 C177.37623449 164.64518782 177.39163116 159.46894536 177.40471697 154.29262519 C177.42050534 148.85543803 177.44724412 143.4183041 177.4727478 137.9811554 C177.51926077 127.71832771 177.55613655 117.4554897 177.58942068 107.19261152 C177.63504231 93.30092966 177.69581337 79.40931424 177.75566864 65.5176878 C177.84937412 43.67849208 177.9230655 21.83927616 178 0 C208.36 0 238.72 0 270 0 C270.08060607 48.5562 270.08060607 48.5562 270.09765625 69.00195312 C270.10949442 83.08408068 270.12336348 97.16618419 270.15087891 111.24829102 C270.17091416 121.50707736 270.18374031 131.76584407 270.18817699 142.02464944 C270.19076733 147.4484817 270.19678583 152.87225786 270.21146011 158.29607201 C270.22520482 163.41861999 270.22918916 168.54108965 270.22621536 173.66365433 C270.22675808 175.52701686 270.23063362 177.39038248 270.23841095 179.25372887 C270.3074157 196.66520002 269.19424814 213.96282099 265.75 231.0625 C265.53529053 232.14901855 265.32058105 233.23553711 265.09936523 234.35498047 C263.03345844 244.44690923 260.30961991 254.24928452 257 264 C256.76700195 264.69206543 256.53400391 265.38413086 256.29394531 266.09716797 C246.31827135 295.25737148 230.47240477 321.51878896 208.65625477 343.32762241 C207.60804884 344.38603211 206.58588536 345.47146002 205.60283184 346.59064388 C201.12407333 351.18062145 197.29392628 351.72907321 191.01239014 351.86871338 C189.8408136 351.86442322 188.66923706 351.86013306 187.4621582 351.85571289 C186.21244736 351.87425827 184.96273651 351.89280365 183.67515564 351.91191101 C180.26096055 351.95480797 176.84895538 351.97059047 173.43463922 351.97061086 C170.57471521 351.97335221 167.71499548 351.99298609 164.85514039 352.01190466 C158.09967409 352.05549961 151.34469483 352.06579072 144.58911133 352.05688477 C137.64621397 352.04845524 130.70577329 352.10287145 123.76344043 352.18742949 C117.7817165 352.2576394 111.8007843 352.28478733 105.81865376 352.27899545 C102.25504058 352.27617838 98.69348081 352.28976261 95.13027382 352.3464222 C70.63670557 352.70789155 70.63670557 352.70789155 63.91465282 347.151824 C61.70077827 344.93527058 59.84198508 342.52937294 58 340 C56.71419467 338.7632986 55.40694283 337.54768886 54.0625 336.375 C8.12684718 289.57805369 -0.54652092 224.24692225 -0.30418181 161.96915245 C-0.28521525 156.25976016 -0.28364905 150.55036131 -0.28010559 144.84094238 C-0.27084306 134.06815978 -0.24630911 123.29547033 -0.21605712 112.52272844 C-0.17600422 97.93810388 -0.16001135 83.35345321 -0.14255047 68.76878738 C-0.11448271 45.84578871 -0.05467497 22.92298645 0 0 Z " fill="#000000" transform="translate(1793,389)"/>
<path d="M0 0 C4.27325767 0.05680391 8.54659055 0.06159065 12.82016754 0.07222867 C20.88792689 0.10004497 28.95457009 0.17368239 37.02184105 0.26437408 C47.94051683 0.38441934 58.85950443 0.4324885 69.77867508 0.48489404 C86.9468227 0.56916293 104.11261662 0.74855865 121.28061676 0.91254544 C121.28061676 25.00254544 121.28061676 49.09254544 121.28061676 73.91254544 C86.30061676 73.91254544 51.32061676 73.91254544 15.28061676 73.91254544 C32.51074926 99.75970241 32.51074926 99.75970241 49.84311676 125.53754544 C51.09307547 127.38997607 52.34299332 129.24243428 53.59287262 131.09491849 C60.11645502 140.7610404 66.65425462 150.417313 73.21155548 160.06058621 C79.70568614 169.61306552 86.17668062 179.18091636 92.60236359 188.77958035 C93.44857724 190.04278781 94.2959436 191.30522412 95.14466095 192.56675076 C103.63743033 205.19653137 111.54531409 218.10203306 118.59311676 231.60004544 C119.34045074 232.99319974 119.34045074 232.99319974 120.10288239 234.41449857 C127.60721691 248.73915298 130.66809514 262.51663899 130.59311676 278.60004544 C130.58574493 280.46125028 130.58574493 280.46125028 130.57822418 282.36005521 C130.28449463 305.33874404 122.95713661 325.08918482 107.31967926 342.02582669 C106.30976697 342.99132832 105.29650224 343.9533307 104.28061676 344.91254544 C103.7333471 345.50166746 103.18607744 346.09078948 102.62222385 346.69776368 C95.34744568 353.57510132 87.38021362 352.85614783 78.01084137 352.70722318 C76.26569448 352.70524632 74.52054177 352.70636155 72.77539825 352.71032071 C68.05862377 352.7123221 63.34310551 352.67128388 58.62662196 352.62230301 C53.68994634 352.57842491 48.75323916 352.57442254 43.81639862 352.56612515 C34.47723122 352.54440312 25.13864015 352.48700715 15.79972607 352.41667873 C5.16376748 352.3383282 -5.47221922 352.29992185 -16.10839474 352.26481068 C-37.97911698 352.19172125 -59.84904956 352.06339362 -81.71938324 351.91254544 C-81.71938324 328.15254544 -81.71938324 304.39254544 -81.71938324 279.91254544 C-40.46938324 279.91254544 0.78061676 279.91254544 43.28061676 279.91254544 C32.62302251 264.23961273 21.96136138 248.56967533 11.28061676 232.91254544 C4.16062692 222.47520144 -2.95747023 212.03660466 -10.06069183 201.58783841 C-11.49819707 199.47336282 -12.9360219 197.35910447 -14.3741684 195.24506497 C-17.81216665 190.19112134 -21.24679098 185.13497908 -24.67250824 180.07270169 C-30.42936515 171.5787497 -36.23099625 163.13770963 -42.28188324 154.85004544 C-74.4189159 110.65238792 -74.4189159 110.65238792 -78.71938324 89.91254544 C-78.90500824 89.04371732 -79.09063324 88.17488919 -79.28188324 87.27973294 C-82.08978906 65.66888633 -79.19197526 45.11661099 -66.65297699 26.91254544 C-61.43772981 20.19523244 -55.55239068 14.92488336 -48.71938324 9.91254544 C-47.7819931 9.13206342 -46.84460297 8.35158139 -45.87880707 7.5474484 C-32.66240697 -2.34074498 -15.65723494 -0.24367589 0 0 Z " fill="#000000" transform="translate(1151.719383239746,388.0874545574188)"/>
<path d="M0 0 C30.03 0 60.06 0 91 0 C92.73575119 1.73575119 92.12347608 3.98007322 92.13100848 6.293753 C92.12838146 7.0612118 92.12575445 7.82867059 92.12304783 8.61938572 C92.12420167 9.43095893 92.12535552 10.24253215 92.12654433 11.07869849 C92.12921845 13.83345586 92.12468233 16.58815628 92.12025452 19.34291077 C92.12069006 21.32367814 92.12156464 23.30444545 92.12284368 25.28521246 C92.12509204 30.75571582 92.12106274 36.2261998 92.11606562 41.69670069 C92.11176616 47.58562702 92.11320718 53.47455216 92.1139679 59.36347961 C92.11452775 70.24208139 92.11062829 81.12067606 92.10462701 91.99927604 C92.09913117 102.04693109 92.09589773 112.09458403 92.09487724 122.14224052 C92.0948085 122.80761824 92.09473976 123.47299595 92.09466894 124.15853663 C92.09433062 127.53744923 92.09402923 130.91636183 92.09374207 134.29527443 C92.09163987 158.2480395 92.08489752 182.20080125 92.07543945 206.15356445 C92.06625982 229.42797834 92.05917386 252.70239131 92.05493164 275.97680664 C92.05480011 276.69382195 92.05466859 277.41083726 92.05453308 278.14958031 C92.05321459 285.34993265 92.05193877 292.55028499 92.05069422 299.75063734 C92.04815779 314.41948724 92.04533653 329.08833708 92.04234314 343.75718689 C92.0421372 344.76893298 92.0421372 344.76893298 92.04192711 345.80111838 C92.03272147 390.86741392 92.01623651 435.93370634 92 481 C61.64 481 31.28 481 0 481 C0 322.27 0 163.54 0 0 Z " fill="#000000" transform="translate(1645,259)"/>
<path d="M0 0 C11.44058249 -0.20980983 22.88069713 -0.36908636 34.32282162 -0.46630955 C39.63770607 -0.51300554 44.95126124 -0.57619671 50.26538086 -0.67895508 C55.40728605 -0.77774537 60.54792429 -0.83076426 65.69070625 -0.85389519 C67.63899208 -0.87034848 69.58721941 -0.90247239 71.53495598 -0.95157051 C85.66501253 -1.2931404 95.12373143 1.24645303 107 9 C107.5989831 13.88803185 108.06940328 18.14533263 107 23 C103.34103618 26.49963957 98.2561672 30 93 30 C93 30.99 93 31.98 93 33 C93.825 33.226875 94.65 33.45375 95.5 33.6875 C96.655 34.120625 97.81 34.55375 99 35 C99.71929687 35.24878906 100.43859375 35.49757813 101.1796875 35.75390625 C103.76307779 36.92608512 105.22110822 37.76532252 107 40 C107.70105057 44.75096578 107.38339651 49.23380368 107 54 C94.06962638 62.44173056 83.9155189 64.26365704 68.65234375 63.87890625 C66.65884815 63.86207116 64.66531471 63.84928324 62.67176819 63.84031677 C57.48412977 63.80633696 52.2988449 63.71827588 47.11212158 63.61798096 C41.79577455 63.52507035 36.47903834 63.48463082 31.16210938 63.43945312 C20.77371875 63.34361084 10.38705682 63.19048913 0 63 C0 58.05 0 53.1 0 48 C28.05 48 56.1 48 85 48 C85 45.03 85 42.06 85 39 C56.95 39 28.9 39 0 39 C0 34.05 0 29.1 0 24 C28.05 24 56.1 24 85 24 C85 21.03 85 18.06 85 15 C56.95 15 28.9 15 0 15 C0 10.05 0 5.1 0 0 Z " fill="#000000" transform="translate(0,677)"/>
<path d="M0 0 C2.61328125 1.6015625 2.61328125 1.6015625 4.62109375 3.25390625 C6.99501652 5.04676424 8.51128015 5.55514783 11.48828125 5.6640625 C13.8974574 4.22169797 13.8974574 4.22169797 16.36328125 2.2265625 C25.40301897 -3.29090997 36.25192192 -3.25917451 46.48828125 -1.3359375 C52.80361538 0.79805266 57.83564632 4.06238361 63.48828125 7.6640625 C63.48828125 17.5640625 63.48828125 27.4640625 63.48828125 37.6640625 C28.17828125 37.6640625 -7.13171875 37.6640625 -43.51171875 37.6640625 C-43.51171875 27.7640625 -43.51171875 17.8640625 -43.51171875 7.6640625 C-30.14988667 -0.84967122 -15.710508 -5.97663374 0 0 Z M-24.51171875 15.6640625 C-24.76177261 18.62223357 -24.76177261 18.62223357 -24.51171875 21.6640625 C-21.19210766 24.98367359 -17.68371076 24.81972082 -13.13671875 24.8515625 C-8.88929691 24.82313263 -5.45844653 24.37075559 -1.51171875 22.6640625 C-0.82678502 19.80628217 -0.82678502 19.80628217 -0.51171875 16.6640625 C-2.12474507 13.61946423 -2.12474507 13.61946423 -4.265625 12.98828125 C-7.01381054 12.59158664 -9.67199308 12.49407338 -12.44921875 12.4765625 C-13.46886719 12.46238281 -14.48851562 12.44820312 -15.5390625 12.43359375 C-18.83375183 12.68902959 -22.08837837 13.24072212 -24.51171875 15.6640625 Z M20.48828125 15.6640625 C20.32147016 18.58058424 20.32147016 18.58058424 20.48828125 21.6640625 C23.94273987 25.11852112 27.70093753 24.82177156 32.42578125 24.8515625 C33.44542969 24.86574219 34.46507813 24.87992188 35.515625 24.89453125 C38.81031433 24.63909541 42.06494087 24.08740288 44.48828125 21.6640625 C44.73833511 18.70589143 44.73833511 18.70589143 44.48828125 15.6640625 C41.20280906 12.37859031 37.68221139 12.49055071 33.17578125 12.4140625 C28.17427304 12.44088024 24.87662432 13.32361286 20.48828125 15.6640625 Z " fill="#000000" transform="translate(43.51171875,586.3359375)"/>
<path d="M0 0 C7.26 0 14.52 0 22 0 C22 5.94 22 11.88 22 18 C29.26 18 36.52 18 44 18 C44 12.39 44 6.78 44 1 C50.27 1 56.54 1 63 1 C63 6.61 63 12.22 63 18 C70.26 18 77.52 18 85 18 C85 12.06 85 6.12 85 0 C92.26 0 99.52 0 107 0 C107 10.89 107 21.78 107 33 C71.69 33 36.38 33 0 33 C0 22.11 0 11.22 0 0 Z " fill="#000000" transform="translate(0,634)"/>
<path d="M0 0 C33.46851441 -2.19127934 33.46851441 -2.19127934 41.04516602 3.83837891 C45.87469828 8.91793331 48.06403768 14.30435379 48.25 21.3125 C48.03323687 26.33299463 46.9367587 29.92410721 43.5 33.6875 C42.8503125 34.22761719 42.200625 34.76773438 41.53125 35.32421875 C39.77988176 36.93959575 39.77988176 36.93959575 39.5625 39.5 C40.11197277 42.63984439 41.08384486 43.30383134 43.5 45.3125 C47.45715368 49.64574679 48.34624103 54.06057579 48.19482422 59.7668457 C47.54440738 65.99091288 45.34912039 70.63485344 41.04516602 75.16162109 C30.81504283 83.30296767 12.2106187 79.79946412 0 79 C0 74.05 0 69.1 0 64 C8.58 64 17.16 64 26 64 C26 58.39 26 52.78 26 47 C19.07 47 12.14 47 5 47 C4.979375 44.545625 4.95875 42.09125 4.9375 39.5625 C4.928396 38.78849854 4.91929199 38.01449707 4.90991211 37.21704102 C4.90275087 35.47778283 4.94975298 33.73854696 5 32 C6 31 6 31 7.94946289 30.88647461 C8.7821167 30.89171143 9.61477051 30.89694824 10.47265625 30.90234375 C11.37177734 30.90556641 12.27089844 30.90878906 13.19726562 30.91210938 C14.14279297 30.92048828 15.08832031 30.92886719 16.0625 30.9375 C17.01189453 30.94201172 17.96128906 30.94652344 18.93945312 30.95117188 C21.29299531 30.96299872 23.64650532 30.98093479 26 31 C26 26.05 26 21.1 26 16 C17.42 16 8.84 16 0 16 C0 10.72 0 5.44 0 0 Z " fill="#000000" transform="translate(114,661)"/>
<path d="M0 0 C7.83464567 6.71541057 7.83464567 6.71541057 10.3125 9.6875 C13.14675585 13.01854677 16.04869093 16.27186617 19 19.5 C22.42715239 23.25748033 25.80822591 27.04577886 29.13671875 30.890625 C32.31047736 34.48355927 35.59328656 37.97902082 38.86328125 41.484375 C41 44 41 44 43 48 C28.81 48 14.62 48 0 48 C0 32.16 0 16.32 0 0 Z " fill="#929292" transform="translate(113,605)"/>
</svg>
