<svg width="575" height="115" viewBox="0 0 575 115" fill="none" xmlns="http://www.w3.org/2000/svg">
    <g clip-path="url(#clip0_26_194)">
        <g clip-path="url(#clip1_26_194)">
            <path d="M37.5041 32.3572L73.3786 21.788L62.911 57.7641L73.3786 93.6386L37.5041 83.171L1.52798 93.6386L12.0972 57.7641L1.52798 21.788L37.5041 32.3572Z" fill="black"/>
        </g>
    </g>
    <path d="M101.608 84V24.5198H127.44C131.178 24.5198 134.436 25.1712 137.211 26.4741C139.987 27.777 142.14 29.6181 143.669 31.9973C145.199 34.3765 145.963 37.1806 145.963 40.4095V41.4292C145.963 44.998 145.114 47.887 143.414 50.0963C141.715 52.3055 139.619 53.92 137.126 54.9397V56.4692C139.392 56.5825 141.148 57.3755 142.395 58.8484C143.641 60.2646 144.264 62.1623 144.264 64.5415V84H133.048V66.1559C133.048 64.7964 132.679 63.6918 131.943 62.842C131.263 61.9923 130.102 61.5675 128.459 61.5675H112.824V84H101.608ZM112.824 51.3709H126.25C128.912 51.3709 130.98 50.6628 132.453 49.2466C133.982 47.7737 134.747 45.8477 134.747 43.4685V42.6188C134.747 40.2396 134.011 38.3418 132.538 36.9257C131.065 35.4528 128.969 34.7164 126.25 34.7164H112.824V51.3709ZM155.296 84V24.5198H193.534V34.7164H166.513V48.9067H191.154V59.1033H166.513V73.8034H194.043V84H155.296ZM202.346 84V24.5198H226.818C230.557 24.5198 233.842 25.2845 236.675 26.814C239.564 28.2869 241.801 30.3828 243.387 33.1019C245.03 35.821 245.852 39.0499 245.852 42.7887V43.9783C245.852 47.6604 245.002 50.8893 243.302 53.6651C241.66 56.3842 239.394 58.5085 236.505 60.038C233.672 61.5108 230.443 62.2472 226.818 62.2472H213.562V84H202.346ZM213.562 52.0506H225.713C228.376 52.0506 230.528 51.3142 232.171 49.8414C233.814 48.3685 234.635 46.3575 234.635 43.8084V42.9586C234.635 40.4095 233.814 38.3985 232.171 36.9257C230.528 35.4528 228.376 34.7164 225.713 34.7164H213.562V52.0506ZM276.74 85.1896C269.263 85.1896 263.315 83.1503 258.896 79.0716C254.478 74.9363 252.268 69.045 252.268 61.3975V47.1223C252.268 39.4748 254.478 33.6118 258.896 29.5331C263.315 25.3978 269.263 23.3302 276.74 23.3302C284.218 23.3302 290.166 25.3978 294.584 29.5331C299.003 33.6118 301.212 39.4748 301.212 47.1223V61.3975C301.212 69.045 299.003 74.9363 294.584 79.0716C290.166 83.1503 284.218 85.1896 276.74 85.1896ZM276.74 75.1629C280.932 75.1629 284.189 73.945 286.512 71.5092C288.835 69.0733 289.996 65.816 289.996 61.7374V46.7824C289.996 42.7037 288.835 39.4465 286.512 37.0106C284.189 34.5748 280.932 33.3568 276.74 33.3568C272.605 33.3568 269.348 34.5748 266.968 37.0106C264.646 39.4465 263.485 42.7037 263.485 46.7824V61.7374C263.485 65.816 264.646 69.0733 266.968 71.5092C269.348 73.945 272.605 75.1629 276.74 75.1629ZM311.05 84V24.5198H336.882C340.62 24.5198 343.878 25.1712 346.653 26.4741C349.429 27.777 351.582 29.6181 353.111 31.9973C354.641 34.3765 355.405 37.1806 355.405 40.4095V41.4292C355.405 44.998 354.556 47.887 352.856 50.0963C351.157 52.3055 349.061 53.92 346.568 54.9397V56.4692C348.834 56.5825 350.59 57.3755 351.837 58.8484C353.083 60.2646 353.706 62.1623 353.706 64.5415V84H342.49V66.1559C342.49 64.7964 342.122 63.6918 341.385 62.842C340.705 61.9923 339.544 61.5675 337.901 61.5675H322.266V84H311.05ZM322.266 51.3709H335.692C338.354 51.3709 340.422 50.6628 341.895 49.2466C343.424 47.7737 344.189 45.8477 344.189 43.4685V42.6188C344.189 40.2396 343.453 38.3418 341.98 36.9257C340.507 35.4528 338.411 34.7164 335.692 34.7164H322.266V51.3709ZM377.508 84V34.7164H360.174V24.5198H406.059V34.7164H388.724V84H377.508ZM411.997 84V74.1433H419.815V34.3765H411.997V24.5198H436.469C444.456 24.5198 450.518 26.5591 454.653 30.6377C458.845 34.6597 460.941 40.6644 460.941 48.6518V59.868C460.941 67.8554 458.845 73.8884 454.653 77.967C450.518 81.989 444.456 84 436.469 84H411.997ZM431.031 73.8034H436.639C441.171 73.8034 444.485 72.6138 446.581 70.2346C448.677 67.8554 449.725 64.5131 449.725 60.2079V48.3119C449.725 43.95 448.677 40.6078 446.581 38.2852C444.485 35.906 441.171 34.7164 436.639 34.7164H431.031V73.8034ZM465.713 84L481.348 24.5198H500.891L516.526 84H504.97L501.741 70.9144H480.498L477.269 84H465.713ZM483.132 60.5478H499.107L491.884 31.5724H490.355L483.132 60.5478ZM546.26 85.1896C538.782 85.1896 532.834 83.1503 528.416 79.0716C523.997 74.9363 521.788 69.045 521.788 61.3975V47.1223C521.788 39.4748 523.997 33.6118 528.416 29.5331C532.834 25.3978 538.782 23.3302 546.26 23.3302C553.737 23.3302 559.685 25.3978 564.104 29.5331C568.523 33.6118 570.732 39.4748 570.732 47.1223V61.3975C570.732 69.045 568.523 74.9363 564.104 79.0716C559.685 83.1503 553.737 85.1896 546.26 85.1896ZM546.26 75.1629C550.452 75.1629 553.709 73.945 556.032 71.5092C558.354 69.0733 559.516 65.816 559.516 61.7374V46.7824C559.516 42.7037 558.354 39.4465 556.032 37.0106C553.709 34.5748 550.452 33.3568 546.26 33.3568C542.125 33.3568 538.867 34.5748 536.488 37.0106C534.166 39.4465 533.004 42.7037 533.004 46.7824V61.7374C533.004 65.816 534.166 69.0733 536.488 71.5092C538.867 73.945 542.125 75.1629 546.26 75.1629Z" fill="black"/>
    <defs>
        <clipPath id="clip0_26_194">
            <rect width="447.459" height="114.139" fill="white" transform="translate(0.819427 0.694458)"/>
        </clipPath>
        <clipPath id="clip1_26_194">
            <rect width="73.375" height="73.375" fill="white" transform="translate(0.819397 21.0764)"/>
        </clipPath>
    </defs>
</svg>
