<svg width="2113" height="540" viewBox="0 0 2113 540" fill="none" xmlns="http://www.w3.org/2000/svg">
<g clip-path="url(#clip0_117_320)">
<path d="M173.637 150.428L342.995 100.532L293.579 270.37L342.995 439.728L173.637 390.312L3.79889 439.728L53.6948 270.37L3.79889 100.532L173.637 150.428Z" fill="black"/>
</g>
<path d="M457.008 397.395L530.818 116.597H623.08L696.89 397.395H642.335L627.091 335.619H526.806L511.563 397.395H457.008ZM539.242 286.68H614.656L580.559 149.892H573.339L539.242 286.68ZM746.584 397.395L718.504 198.43H768.647L786.297 363.298H793.517L819.19 198.43H900.22L925.893 363.298H933.114L950.764 198.43H1000.91L972.827 397.395H888.988L863.315 232.526H856.095L830.422 397.395H746.584ZM1106.88 403.011C1092.71 403.011 1080 400.604 1068.77 395.79C1057.54 390.709 1048.58 383.489 1041.89 374.129C1035.48 364.501 1032.27 352.868 1032.27 339.23C1032.27 325.591 1035.48 314.225 1041.89 305.133C1048.58 295.773 1057.67 288.82 1069.17 284.273C1080.94 279.46 1094.31 277.053 1109.29 277.053H1163.84V265.821C1163.84 256.461 1160.9 248.839 1155.02 242.956C1149.13 236.805 1139.77 233.73 1126.94 233.73C1114.37 233.73 1105.01 236.672 1098.86 242.555C1092.71 248.171 1088.69 255.525 1086.82 264.618L1040.29 248.973C1043.5 238.811 1048.58 229.585 1055.53 221.295C1062.75 212.737 1072.25 205.918 1084.01 200.836C1096.05 195.488 1110.62 192.814 1127.74 192.814C1153.95 192.814 1174.67 199.366 1189.92 212.469C1205.16 225.573 1212.78 244.561 1212.78 269.431V343.642C1212.78 351.665 1216.52 355.676 1224.01 355.676H1240.06V397.395H1206.36C1196.47 397.395 1188.31 394.988 1181.89 390.174C1175.47 385.361 1172.26 378.942 1172.26 370.92V370.518H1164.64C1163.57 373.728 1161.17 378.006 1157.42 383.355C1153.68 388.436 1147.8 392.982 1139.77 396.994C1131.75 401.005 1120.79 403.011 1106.88 403.011ZM1115.7 362.094C1129.88 362.094 1141.38 358.217 1150.2 350.461C1159.29 342.439 1163.84 331.875 1163.84 318.771V314.76H1112.9C1103.54 314.76 1096.18 316.766 1090.83 320.777C1085.49 324.789 1082.81 330.404 1082.81 337.625C1082.81 344.845 1085.62 350.729 1091.23 355.275C1096.85 359.821 1105.01 362.094 1115.7 362.094ZM1277.01 397.395V198.43H1326.75V220.893H1333.97C1336.92 212.871 1341.73 206.987 1348.42 203.243C1355.37 199.499 1363.39 197.627 1372.48 197.627H1396.55V242.555H1371.68C1358.84 242.555 1348.28 246.031 1339.99 252.985C1331.7 259.67 1327.56 270.1 1327.56 284.273V397.395H1277.01ZM1519.66 403.011C1499.87 403.011 1482.36 398.866 1467.12 390.575C1452.14 382.018 1440.37 370.117 1431.81 354.874C1423.52 339.363 1419.38 321.178 1419.38 300.319V295.505C1419.38 274.646 1423.52 256.595 1431.81 241.351C1440.1 225.841 1451.74 213.94 1466.71 205.65C1481.69 197.092 1499.07 192.814 1518.86 192.814C1538.38 192.814 1555.37 197.226 1569.81 206.051C1584.25 214.609 1595.48 226.643 1603.5 242.154C1611.53 257.397 1615.54 275.181 1615.54 295.505V312.754H1470.73C1471.26 326.393 1476.34 337.491 1485.97 346.049C1495.6 354.607 1507.36 358.885 1521.27 358.885C1535.44 358.885 1545.87 355.81 1552.56 349.659C1559.24 343.508 1564.32 336.689 1567.8 329.201L1609.12 350.863C1605.37 357.816 1599.89 365.437 1592.67 373.728C1585.72 381.75 1576.36 388.703 1564.59 394.587C1552.83 400.203 1537.85 403.011 1519.66 403.011ZM1471.13 275.047H1564.19C1563.12 263.548 1558.44 254.322 1550.15 247.369C1542.13 240.416 1531.56 236.939 1518.46 236.939C1504.82 236.939 1493.99 240.416 1485.97 247.369C1477.95 254.322 1473 263.548 1471.13 275.047Z" fill="black"/>
<defs>
<clipPath id="clip0_117_320">
<rect width="2112.39" height="538.833" fill="white" transform="translate(0.453857 0.952393)"/>
</clipPath>
</defs>
</svg>
