<svg width="1225" height="1050" viewBox="0 0 1225 1050" fill="none" xmlns="http://www.w3.org/2000/svg">
    <g clip-path="url(#clip0_4_487)">
        <path d="M634.197 881.861L670.071 871.291L659.603 907.267L670.071 943.142L634.197 932.674L598.22 943.142L608.79 907.267L598.22 871.291L634.197 881.861Z" fill="black" stroke="white" stroke-width="2.03819" stroke-miterlimit="10"/>
    </g>
    <g clip-path="url(#clip1_4_487)">
        <path d="M254.988 704.485L319.142 739.44L254.988 774.676L219.893 838.69L184.797 774.676L120.643 739.44L184.797 704.485L219.893 640.191L254.988 704.485Z" fill="black" stroke="white" stroke-width="2.03819" stroke-miterlimit="10"/>
    </g>
    <path d="M1151.05 793.808C1147.17 800.827 1139.96 805.904 1129.58 809.054C1119.19 812.204 1105.71 813.394 1089.48 812.694C1057.03 811.294 1013.82 802.349 962.837 786.745C860.885 755.54 728.073 697.773 588.58 620.83C449.087 543.887 329.377 462.365 248.598 392.777C208.202 357.977 177.584 326.197 159.091 299.497C149.842 286.146 143.66 274.112 140.782 263.643C137.906 253.179 138.354 244.37 142.225 237.351C146.097 230.332 153.309 225.254 163.694 222.105C174.084 218.954 187.561 217.764 203.788 218.464C236.237 219.864 279.45 228.809 330.434 244.414C432.385 275.618 565.198 333.385 704.691 410.328C844.184 487.271 963.893 568.793 1044.67 638.382C1085.07 673.182 1115.69 704.961 1134.18 731.661C1143.43 745.013 1149.61 757.047 1152.49 767.516C1155.36 777.98 1154.92 786.788 1151.05 793.808Z" stroke="black" stroke-width="2.03819"/>
    <path d="M1109.81 868.556C1105.94 875.575 1098.73 880.653 1088.34 883.802C1077.95 886.953 1064.48 888.143 1048.25 887.443C1015.8 886.043 972.587 877.098 921.603 861.493C819.652 830.289 686.839 772.522 547.346 695.579C407.853 618.636 288.144 537.113 207.365 467.525C166.969 432.725 136.351 400.946 117.857 374.246C108.609 360.894 102.426 348.86 99.5486 338.391C96.6723 327.927 97.12 319.119 100.992 312.099C104.863 305.08 112.075 300.003 122.461 296.853C132.851 293.703 146.327 292.513 162.554 293.213C195.003 294.613 238.216 303.558 289.2 319.162C391.152 350.366 523.964 408.134 663.457 485.077C802.95 562.02 922.66 643.542 1003.44 713.13C1043.83 747.93 1074.45 779.71 1092.95 806.409C1102.19 819.761 1108.38 831.795 1111.25 842.264C1114.13 852.728 1113.68 861.537 1109.81 868.556Z" stroke="black" stroke-width="2.03819"/>
    <path d="M1068.58 943.305C1064.71 950.325 1057.5 955.402 1047.11 958.551C1036.72 961.702 1023.25 962.892 1007.02 962.192C974.57 960.792 931.357 951.847 880.373 936.242C778.422 905.038 645.609 847.271 506.116 770.328C366.624 693.385 246.914 611.863 166.135 542.274C125.739 507.475 95.1211 475.695 76.6272 448.995C67.3792 435.643 61.1966 423.61 58.319 413.14C55.4427 402.676 55.8904 393.868 59.7621 386.849C63.6339 379.829 70.8456 374.752 81.2309 371.603C91.6211 368.452 105.098 367.262 121.324 367.962C153.774 369.362 196.987 378.307 247.971 393.912C349.922 425.116 482.735 482.883 622.228 559.826C761.72 636.769 881.43 718.291 962.209 787.88C1002.61 822.679 1033.22 854.459 1051.72 881.159C1060.96 894.51 1067.15 906.544 1070.03 917.013C1072.9 927.478 1072.45 936.286 1068.58 943.305Z" stroke="black" stroke-width="2.03819"/>
    <circle cx="268.343" cy="213.262" r="31.592" fill="#B9FF66"/>
    <circle cx="858.401" cy="886.885" r="20.3819" fill="#B9FF66"/>
    <circle cx="166.434" cy="131.734" r="47.8976" fill="black"/>
    <path d="M623.952 782.102C611.103 786.493 596.419 777.79 591.311 762.701L511.824 529.813L558.271 513.925L637.838 747.132C642.945 762.062 636.721 777.71 623.952 782.102Z" fill="black"/>
    <path d="M617.008 784.976C613.257 784.976 609.426 784.097 605.755 782.261C598.333 778.589 592.428 771.722 589.555 763.26L510.068 530.372C509.749 529.494 510.228 528.456 511.185 528.137L557.632 512.249C558.111 512.089 558.59 512.089 558.989 512.329C559.388 512.568 559.707 512.887 559.867 513.366L639.433 746.573C644.78 762.381 638.077 779.068 624.43 783.778C622.116 784.576 619.562 784.976 617.008 784.976ZM514.058 530.931L592.986 762.142C595.54 769.727 600.807 775.954 607.351 779.147C612.619 781.702 618.285 782.181 623.392 780.425C635.204 776.353 640.95 761.663 636.161 747.691L557.154 516.161L514.058 530.931Z" fill="black"/>
    <path d="M550.05 312.893L399.775 420.115L341.277 480.872L318.293 521.51L318.213 521.829C313.664 528.855 316.298 545.062 324.837 561.588C333.217 577.875 345.028 589.212 353.328 589.851L353.088 590.011L397.221 594.801L479.82 581.628L655.154 518.875L873.104 556.239L874.62 556.319C819.874 546.1 745.973 472.888 692.264 369.338C638.634 265.868 621.556 163.596 645.098 113.138H645.019L551.247 310.338L550.05 312.893Z" fill="#B9FF66"/>
    <path d="M910.842 551.812C964.706 523.828 954.29 396.962 887.577 268.45C820.865 139.938 723.118 58.4437 669.254 86.428C615.389 114.412 625.805 241.278 692.518 369.79C759.23 498.302 856.977 579.796 910.842 551.812Z" fill="white"/>
    <path d="M887.151 559.114C863.688 559.114 835.437 546.02 805.031 520.552C763.612 485.902 722.991 432.491 690.669 370.057C641.748 275.529 621.557 178.605 639.274 123.118C645.18 104.596 655.076 91.6618 668.563 84.7159C695.378 70.9837 733.126 82.6401 774.944 117.609C816.364 152.259 856.985 205.671 889.306 268.104C938.307 362.632 958.498 459.556 940.701 515.043C934.796 533.566 924.9 546.499 911.412 553.445C904.15 557.277 896.01 559.114 887.151 559.114ZM692.983 82.6401C684.763 82.6401 677.102 84.3167 670.239 87.9094C657.55 94.3763 648.292 106.671 642.706 124.316C625.228 179.005 645.339 274.89 693.861 368.62C759.941 496.121 856.825 577.716 909.896 550.491C922.585 544.024 931.843 531.729 937.429 514.085C954.907 459.396 934.796 363.51 886.274 269.781C828.733 158.806 747.97 82.6401 692.983 82.6401Z" fill="black"/>
    <path d="M887.151 559.114C863.688 559.114 835.437 546.02 805.031 520.552C763.611 485.902 722.99 432.49 690.669 370.057C641.748 275.529 621.557 178.605 639.274 123.118C645.179 104.595 655.075 91.6617 668.562 84.7158C686.519 75.4545 709.982 77.7699 736.397 91.3423C761.696 104.356 789.069 127.429 815.725 158.007C816.363 158.726 816.283 159.843 815.565 160.482C814.847 161.121 813.729 161.041 813.091 160.322C758.983 98.2084 704.236 70.4248 670.238 87.9093C657.549 94.3762 648.292 106.671 642.705 124.315C625.228 179.005 645.339 274.89 693.861 368.62C751.321 479.515 832.165 555.76 887.071 555.76C895.291 555.76 902.953 554.084 909.816 550.491C922.505 544.024 931.762 531.729 937.349 514.085C954.826 459.396 934.715 363.51 886.193 269.78C871.748 241.837 855.468 215.57 837.99 191.699C837.432 190.9 837.591 189.783 838.389 189.224C839.188 188.665 840.305 188.825 840.863 189.623C858.501 213.654 874.781 240.081 889.385 268.184C938.307 362.632 958.497 459.556 940.701 515.043C934.795 533.565 924.899 546.499 911.412 553.445C904.15 557.277 896.009 559.114 887.151 559.114Z" fill="black"/>
    <path d="M788.626 388.218C801.104 381.735 798.704 352.37 783.265 322.629C767.826 292.888 745.195 274.034 732.716 280.516C720.238 286.999 722.638 316.365 738.077 346.106C753.516 375.847 776.147 394.701 788.626 388.218Z" fill="#B9FF66"/>
    <path d="M783.165 391.294C769.438 391.294 750.285 373.57 736.478 346.824C724.986 324.629 720.278 301.796 724.508 288.622C726.024 283.992 728.498 280.718 731.93 278.962C745.497 272.016 768.72 290.938 784.841 321.995C796.333 344.19 801.042 367.023 796.812 380.197C795.296 384.827 792.822 388.101 789.39 389.857C787.475 390.815 785.4 391.294 783.165 391.294ZM738.154 280.958C736.479 280.958 734.882 281.277 733.526 281.996C730.892 283.353 728.977 285.908 727.78 289.66C723.869 301.955 728.418 323.831 739.511 345.228C754.195 373.57 776.302 392.651 787.714 386.743C790.348 385.386 792.263 382.831 793.46 379.079C797.37 366.704 792.742 344.908 781.728 323.512C768.8 298.682 750.285 280.958 738.154 280.958Z" fill="#B9FF66"/>
    <path d="M875.022 529.334C854.432 529.334 829.692 517.837 803.037 495.562C766.805 465.224 731.211 418.439 702.96 363.829C660.104 281.117 642.467 196.249 657.949 147.628C663.137 131.341 671.836 120.004 683.727 113.856C711.02 99.8848 751.163 116.012 793.939 158.087C794.657 158.805 794.657 159.843 793.939 160.562C793.22 161.28 792.183 161.28 791.465 160.562C749.806 119.605 711.1 103.637 685.323 116.97C674.31 122.639 666.249 133.257 661.301 148.666C646.058 196.409 663.615 280.239 706.072 362.233C756.27 459.236 826.899 525.821 874.942 525.821C882.124 525.821 888.748 524.304 894.813 521.27C905.827 515.602 913.887 504.983 918.835 489.574C934.078 441.831 916.521 358.001 874.064 276.008C861.215 251.258 846.85 228.025 831.368 207.027C830.809 206.229 830.969 205.111 831.767 204.552C832.565 203.994 833.682 204.153 834.241 204.952C849.883 226.189 864.328 249.501 877.256 274.411C920.112 357.123 937.749 441.991 922.267 490.612C917.079 506.899 908.38 518.236 896.489 524.384C889.945 527.657 882.763 529.334 875.022 529.334Z" fill="black"/>
    <path d="M397.303 596.478C397.223 596.478 397.143 596.478 397.143 596.478L353.01 591.688C352.771 591.688 352.531 591.608 352.292 591.448C343.194 590.011 331.702 578.515 323.322 562.387C314.384 545.382 311.751 528.775 316.619 520.951L316.699 520.712L339.683 479.994C339.762 479.835 339.842 479.755 339.922 479.675L398.42 418.918C398.5 418.838 398.579 418.759 398.659 418.679L548.535 311.696L643.344 112.34C643.584 111.941 643.903 111.621 644.382 111.462C644.861 111.302 645.34 111.302 645.739 111.542C646.616 111.941 647.016 112.979 646.616 113.857C622.595 165.352 641.589 267.705 693.782 368.461C746.055 469.376 818.918 544.104 875.021 554.403C875.899 554.563 876.538 555.361 876.458 556.319C876.378 557.198 875.58 557.836 874.702 557.916L873.186 557.836C873.106 557.836 873.026 557.836 872.946 557.836L655.395 520.552L480.46 583.145C480.381 583.145 480.221 583.225 480.141 583.225L397.542 596.398C397.462 596.478 397.382 596.478 397.303 596.478ZM354.287 588.335L397.303 592.965L479.503 579.792L654.757 517.119C655.076 517.039 655.315 516.959 655.635 517.039L851.478 550.571C798.567 527.338 736.717 458.757 690.829 370.137C645.26 282.156 624.909 192.817 636.082 136.371L551.647 313.612C551.488 313.851 551.328 314.091 551.089 314.25L400.974 421.473L342.715 481.91L319.731 522.628C319.731 522.708 319.651 522.788 319.651 522.788C315.501 529.254 318.295 545.222 326.355 560.79C334.256 576.04 345.668 587.536 353.489 588.095C353.808 588.095 354.048 588.175 354.287 588.335Z" fill="black"/>
    <path d="M550.287 312.254L645.017 113.058H645.097C621.554 163.516 638.713 265.789 692.262 369.259C745.972 472.888 819.872 546.1 874.779 556.16L873.262 556.08L655.631 518.795L650.604 517.917C625.305 513.446 591.547 480.553 567.366 433.608C542.546 385.466 538.157 337.483 549.17 314.649L550.287 312.254Z" fill="white"/>
    <path d="M874.779 557.916C874.699 557.916 874.779 557.916 874.779 557.916L873.183 557.836C873.103 557.836 873.023 557.836 872.944 557.836L655.313 520.552L650.285 519.674C623.55 514.963 589.632 480.713 565.77 434.486C538.716 381.953 537.359 335.168 547.575 313.931L548.772 311.536L643.501 112.42C643.741 112.02 644.06 111.701 644.539 111.541C645.018 111.382 645.496 111.382 645.895 111.621C646.773 112.02 647.172 113.058 646.773 113.937C622.752 165.432 641.746 267.785 693.939 368.54C746.212 469.456 819.074 544.184 875.178 554.483C876.056 554.643 876.694 555.441 876.615 556.399C876.375 557.198 875.657 557.916 874.779 557.916ZM635.92 136.371L551.884 313.053L550.687 315.448C540.552 336.525 543.504 383.63 568.883 432.81C592.266 478.158 625.226 511.69 650.923 516.161L655.951 517.039L851.396 550.571C798.485 527.338 736.635 458.757 690.746 370.137C645.177 282.155 624.827 192.817 635.92 136.371Z" fill="black"/>
    <path d="M394.907 596.238C394.828 596.238 394.748 596.238 394.748 596.238L352.929 591.767C352.69 591.767 352.451 591.688 352.211 591.528C343.113 590.091 331.621 578.594 323.242 562.467C314.383 545.382 311.75 528.775 316.618 520.951L316.698 520.712L339.682 479.994C340.161 479.116 341.198 478.876 342.076 479.355C342.954 479.835 343.193 480.872 342.714 481.751L319.73 522.628C319.73 522.708 319.65 522.787 319.65 522.787C315.5 529.254 318.294 545.222 326.354 560.79C334.255 576.039 345.667 587.536 353.488 588.095C353.728 588.095 354.047 588.175 354.206 588.334L395.067 592.726C396.025 592.805 396.743 593.684 396.583 594.642C396.504 595.52 395.785 596.238 394.907 596.238Z" fill="black"/>
    <path d="M397.7 594.482C384.133 593.524 365.139 574.283 351.333 547.697C336.728 519.514 333.296 490.373 342.235 479.995L318.373 521.51L318.213 521.83C313.664 528.855 316.298 545.063 324.837 561.589C333.217 577.876 345.028 589.213 353.328 589.852L353.088 590.011L397.7 594.482Z" fill="white"/>
    <path d="M397.701 596.239C397.621 596.239 397.621 596.239 397.541 596.239C397.222 596.239 396.823 596.159 396.504 596.159L352.929 591.768C352.69 591.768 352.451 591.688 352.211 591.528C343.113 590.091 331.621 578.594 323.242 562.467C314.383 545.382 311.75 528.775 316.618 520.951L316.698 520.712L337.687 484.146C338.485 482.07 339.522 480.234 340.799 478.717C341.358 477.998 342.395 477.918 343.113 478.398C343.832 478.956 344.071 479.914 343.592 480.713L340.639 485.743C335.931 498.437 340.56 523.346 352.69 546.659C365.858 572.127 383.814 590.73 396.663 592.406L397.621 592.486C398.579 592.566 399.297 593.444 399.217 594.402C399.297 595.52 398.579 596.239 397.701 596.239ZM354.206 588.335L384.692 591.448C372.961 583.943 360.032 568.455 349.737 548.495C339.761 529.254 334.814 509.295 335.612 494.924L319.73 522.628C319.73 522.708 319.65 522.787 319.65 522.787C315.5 529.254 318.294 545.222 326.354 560.79C334.255 576.039 345.667 587.536 353.488 588.095C353.728 588.095 354.047 588.175 354.206 588.335Z" fill="black"/>
    <path d="M476.867 581.947L480.379 581.229C461.385 585.22 431.378 556.479 410.229 515.682C388.602 474.006 384.532 432.41 399.854 420.115L397.859 422.111L342.394 479.754C333.296 489.974 336.648 519.274 351.332 547.617C365.458 574.921 385.489 594.402 399.136 594.322L476.867 581.947Z" fill="black"/>
    <path d="M399.058 596.159C384.533 596.159 364.342 576.598 349.738 548.495C334.894 519.754 331.143 489.734 341.039 478.637L395.466 422.112C396.424 420.834 397.541 419.716 398.738 418.758C399.457 418.2 400.494 418.279 401.133 418.918C401.771 419.637 401.771 420.674 401.133 421.313L398.02 424.587C386.927 439.436 392.434 477.439 411.827 514.883C432.736 555.282 461.945 582.985 479.821 579.632L480.061 579.552C481.018 579.393 481.896 579.951 482.136 580.909C482.295 581.868 481.737 582.746 480.779 582.985C480.699 582.985 480.619 582.985 480.54 583.065L477.268 583.704H477.188L399.457 596.079C399.297 596.079 399.137 596.159 399.058 596.159ZM390.838 432.011L343.672 481.032C334.894 490.932 338.884 519.833 352.93 546.898C366.656 573.405 386.049 592.566 399.058 592.646L467.691 581.708C449.176 575.161 426.351 550.491 408.714 516.56C391.955 484.226 385.491 451.332 390.838 432.011Z" fill="black"/>
    <path d="M732.728 280.479C720.198 286.866 722.034 316.486 737.995 346.026C764.73 395.446 786.038 389.617 788.512 388.739C788.592 388.739 788.592 388.819 788.512 388.819L742.624 425.784C729.136 406.863 716.288 385.785 704.476 363.031C693.224 341.236 683.727 319.52 676.225 298.442L732.728 280.479Z" fill="black"/>
    <path d="M742.623 427.541C742.543 427.541 742.464 427.541 742.384 427.541C741.905 427.461 741.506 427.221 741.187 426.822C727.38 407.421 714.532 386.184 702.96 363.91C691.867 342.513 682.29 320.717 674.629 299.161C674.469 298.682 674.469 298.203 674.708 297.804C674.948 297.404 675.267 297.085 675.746 296.925L732.248 278.962C733.126 278.722 734.084 279.122 734.403 280C734.722 280.878 734.403 281.836 733.605 282.235C730.892 283.592 728.897 286.307 727.7 290.299C723.789 302.833 728.577 325.028 739.67 345.387C765.767 393.609 785.878 388.101 788.033 387.302C788.831 386.983 789.789 387.382 790.188 388.101C790.587 388.819 790.427 389.857 789.789 390.416L743.741 427.141C743.421 427.381 743.022 427.541 742.623 427.541ZM678.539 299.56C686.121 320.398 695.378 341.475 706.072 362.233C717.245 383.789 729.695 404.308 743.022 423.229L782.845 391.134C773.748 390.735 756.589 383.949 736.478 346.824C724.827 325.348 720.038 302.674 724.268 289.021C724.827 287.265 725.465 285.748 726.263 284.311L678.539 299.56Z" fill="black"/>
    <path d="M1175.82 170.648C1202.53 143.929 1202.53 100.607 1175.82 73.8871C1149.11 47.1672 1105.81 47.1672 1079.1 73.8871C1052.39 100.607 1052.39 143.929 1079.1 170.648C1105.81 197.368 1149.11 197.368 1175.82 170.648Z" fill="#B9FF66"/>
    <path d="M1127.45 192.418C1088.82 192.418 1057.3 160.961 1057.3 122.24C1057.3 83.5984 1088.74 52.0623 1127.45 52.0623C1166.15 52.0623 1197.6 83.5185 1197.6 122.24C1197.6 160.882 1166.15 192.418 1127.45 192.418ZM1127.45 55.5752C1090.74 55.5752 1060.81 85.4346 1060.81 122.24C1060.81 158.965 1090.66 188.905 1127.45 188.905C1164.16 188.905 1194.08 159.045 1194.08 122.24C1194.08 85.5145 1164.24 55.5752 1127.45 55.5752Z" fill="#B9FF66"/>
    <path d="M1145.96 129.026C1142.13 129.026 1138.78 130.863 1136.54 133.737L1113.48 124.715C1113.48 124.396 1113.56 124.156 1113.56 123.837C1113.56 123.278 1113.48 122.719 1113.4 122.16L1137.02 111.222C1139.18 113.697 1142.37 115.294 1145.96 115.374C1152.5 115.374 1157.93 110.025 1157.93 103.398C1157.93 96.7718 1152.58 91.3428 1145.96 91.3428C1139.42 91.3428 1133.99 96.6919 1133.99 103.318C1133.99 103.877 1134.07 104.436 1134.15 104.995L1110.53 115.933C1108.37 113.458 1105.18 111.861 1101.59 111.781C1095.04 111.781 1089.62 117.13 1089.62 123.757C1089.62 130.384 1094.96 135.813 1101.59 135.813C1105.42 135.813 1108.77 133.976 1111.01 131.102L1134.07 140.124C1134.07 140.443 1133.99 140.683 1133.99 141.002C1133.99 147.629 1139.34 153.058 1145.96 153.058C1152.5 153.058 1157.93 147.708 1157.93 141.082C1157.85 134.455 1152.5 129.106 1145.96 129.026Z" fill="black"/>
    <path d="M1156.08 379.843C1183.14 352.977 1183.43 309.379 1156.73 282.463C1130.02 255.548 1086.44 255.508 1059.38 282.374C1032.32 309.24 1032.04 352.838 1058.74 379.753C1085.44 406.669 1129.03 406.709 1156.08 379.843Z" fill="black"/>
    <path d="M1113.11 357.399C1110.69 361.06 1105.32 361.057 1102.9 357.393L1078.98 321.094C1076.3 317.027 1079.22 311.612 1084.09 311.615L1131.98 311.642C1136.85 311.645 1139.76 317.063 1137.07 321.127L1113.11 357.399Z" fill="white"/>
    <path d="M868.386 29.7369C840.878 56.1418 839.855 99.7292 866.1 127.092C892.346 154.455 935.922 155.231 963.43 128.826C990.938 102.422 991.962 58.8343 965.716 31.4714C939.47 4.10861 895.894 3.33203 868.386 29.7369Z" fill="black"/>
    <path d="M910.973 52.905C913.453 49.2851 918.826 49.3789 921.178 53.0832L944.484 89.7813C947.095 93.8928 944.085 99.2579 939.215 99.1729L891.338 98.3369C886.468 98.2519 883.648 92.785 886.4 88.7671L910.973 52.905Z" fill="white"/>
    <path d="M1107.06 610.876C1145.74 592.04 1161.92 545.596 1143.21 507.141C1124.49 468.686 1077.97 452.782 1039.29 471.618C1000.61 490.455 984.43 536.899 1003.14 575.354C1021.86 613.809 1068.38 629.713 1107.06 610.876Z" fill="#B9FF66"/>
    <path d="M1072.78 620.589C1064.48 620.589 1056.02 619.311 1047.8 616.517C1027.69 609.811 1011.41 595.759 1001.99 576.758C992.575 557.836 991.139 536.359 997.922 516.24C1011.97 474.804 1057.14 452.21 1098.72 466.022C1118.83 472.729 1135.11 486.78 1144.53 505.782C1153.94 524.703 1155.38 546.18 1148.6 566.299C1137.26 599.511 1106.06 620.589 1072.78 620.589ZM1073.58 465.543C1041.74 465.543 1011.89 485.662 1001.11 517.438C994.65 536.679 996.007 557.197 1005.03 575.241C1014.04 593.364 1029.61 606.857 1048.84 613.244C1088.58 626.417 1131.76 604.861 1145.16 565.261C1151.63 546.02 1150.27 525.501 1141.25 507.458C1132.24 489.335 1116.67 475.842 1097.44 469.455C1089.54 466.741 1081.48 465.543 1073.58 465.543Z" fill="black"/>
    <path d="M1112.85 528.695C1112.05 548.096 1079.25 593.444 1071.43 604.062C1070.63 605.18 1068.95 605.1 1068.23 603.903C1063.29 595.919 1046.93 569.093 1038.39 547.377C1034.96 538.755 1032.8 530.931 1033.04 525.422C1033.92 503.386 1052.51 486.221 1074.54 487.1C1096.57 488.137 1113.72 506.66 1112.85 528.695Z" fill="black"/>
    <path d="M1085.85 540.038C1092.99 532.899 1092.99 521.323 1085.85 514.183C1078.71 507.043 1067.14 507.043 1060 514.183C1052.87 521.323 1052.87 532.899 1060 540.038C1067.14 547.178 1078.71 547.178 1085.85 540.038Z" fill="#B9FF66"/>
    <defs>
        <clipPath id="clip0_4_487">
            <rect width="73.375" height="73.375" fill="white" transform="translate(597.512 870.58)"/>
        </clipPath>
        <clipPath id="clip1_4_487">
            <rect width="143.338" height="143.338" fill="white" transform="translate(219.893 638.225) rotate(45)"/>
        </clipPath>
    </defs>
</svg>
